<?xml version="1.0" standalone="no"?>
<!DOCTYPE svg PUBLIC "-//W3C//DTD SVG 20010904//EN"
 "http://www.w3.org/TR/2001/REC-SVG-20010904/DTD/svg10.dtd">
<svg version="1.0" xmlns="http://www.w3.org/2000/svg"
 width="205.000000pt" height="205.000000pt" viewBox="0 0 205.000000 205.000000"
 preserveAspectRatio="xMidYMid meet">
<metadata>
Created by potrace 1.11, written by Peter Selinger 2001-2013
</metadata>
<g transform="translate(0.000000,205.000000) scale(0.100000,-0.100000)"
fill="#000000" stroke="none">
<path d="M987 2014 c-1 -1 -28 -5 -60 -8 -148 -17 -361 -101 -496 -195 -71
-50 -191 -164 -238 -226 -83 -111 -142 -240 -173 -381 -24 -111 -20 -299 9
-407 72 -273 266 -507 533 -645 43 -22 78 -38 78 -35 0 3 6 1 13 -4 13 -11
126 -49 167 -57 14 -3 49 -9 79 -15 29 -6 87 -11 127 -11 74 0 74 0 75 28 0
15 1 141 1 281 0 140 4 264 8 276 9 24 116 85 149 85 12 0 37 -9 57 -19 20
-11 46 -18 57 -15 12 2 75 6 140 8 65 3 122 7 125 11 4 3 7 18 8 33 3 48 4 48
25 1 19 -43 24 -47 65 -53 24 -3 55 -8 68 -12 22 -5 26 -1 37 38 6 23 13 39
15 33 2 -5 8 -29 14 -52 8 -33 21 -49 60 -77 56 -40 63 -36 73 35 16 127 -158
213 -413 204 -157 -6 -302 -52 -401 -128 -69 -52 -72 -52 -44 3 30 60 106 140
132 140 10 0 32 -4 49 -9 24 -7 44 -3 95 18 35 15 90 36 121 46 l58 19 -6 46
-6 45 34 -38 c31 -35 35 -37 68 -28 19 6 53 11 75 14 40 3 40 3 39 45 0 23 1
42 2 42 2 0 17 -20 34 -45 22 -32 38 -45 54 -45 13 0 43 -7 66 -15 23 -8 46
-13 50 -10 12 7 3 70 -14 104 -63 122 -315 124 -549 4 -72 -37 -109 -64 -172
-127 -98 -98 -129 -144 -159 -229 l-23 -65 -44 26 c-78 46 -107 52 -159 33
-34 -14 -60 -16 -108 -12 -34 4 -98 7 -142 6 l-80 0 0 45 -1 45 -25 -47 c-14
-28 -32 -48 -42 -49 -9 0 -30 -3 -47 -6 -61 -11 -67 -9 -80 26 -13 39 -20 34
-30 -20 -5 -29 -17 -43 -61 -72 l-54 -37 -9 23 c-33 87 -4 155 88 202 84 42
155 55 281 51 167 -6 303 -49 432 -137 32 -21 60 -39 63 -39 13 0 -32 63 -75
104 -59 59 -95 77 -127 65 -20 -7 -47 0 -137 36 -62 25 -119 45 -126 45 -9 0
-11 12 -6 48 l7 47 -33 -37 -33 -37 -70 14 c-38 7 -72 15 -75 17 -3 2 -5 20
-5 41 0 20 -2 37 -5 37 -3 0 -17 -20 -32 -45 -23 -37 -33 -45 -56 -45 -16 0
-49 -7 -72 -15 -53 -19 -50 -19 -50 9 0 71 48 137 114 156 186 52 480 -52 653
-231 59 -61 123 -143 123 -157 0 -5 6 -15 13 -21 29 -23 -11 140 -48 200 -27
41 -39 51 -66 53 -10 1 -62 44 -116 97 -159 155 -288 233 -433 261 -30 6 -58
14 -62 17 -12 11 48 77 86 95 162 77 442 -126 584 -424 22 -47 48 -112 58
-145 l17 -60 13 35 c27 75 9 171 -34 184 -13 4 -25 27 -38 69 -10 34 -31 96
-46 137 l-28 75 25 20 c33 27 32 31 -12 30 -35 -1 -41 3 -74 55 l-36 55 31 28
31 29 -48 -7 c-46 -7 -51 -6 -85 27 -20 19 -49 44 -64 55 -33 25 -25 35 40 53
79 21 147 -5 217 -82 75 -83 164 -293 169 -400 1 -41 9 -34 30 25 59 172 146
300 276 406 29 24 21 34 -40 51 -78 22 -140 1 -212 -73 -40 -41 -105 -145
-100 -159 1 -5 -2 -8 -7 -8 -5 0 -9 129 -9 293 0 160 -1 302 -1 314 -1 21 -5
22 -57 20 -30 -1 -56 -3 -57 -3z"/>
<path d="M1590 1411 c-79 -31 -110 -46 -110 -53 0 -5 -5 -8 -11 -8 -30 0 -175
-137 -237 -224 -57 -80 -62 -92 -62 -151 0 -49 2 -55 21 -55 11 0 44 23 73 53
84 83 164 155 168 152 2 -2 9 4 16 15 10 16 7 24 -14 50 -30 35 -27 37 28 10
l41 -20 61 37 c33 21 62 38 64 39 1 0 -4 14 -13 30 -23 44 -18 48 21 18 34
-26 37 -27 87 -15 29 7 68 15 87 18 19 3 37 7 39 9 9 9 -47 75 -80 93 -46 26
-117 27 -179 2z"/>
</g>
</svg>
