<svg width="35" height="32" viewBox="0 0 35 32" fill="none" xmlns="http://www.w3.org/2000/svg">
<g clip-path="url(#clip0)">
<path d="M30.3502 14.1696V5.14025C30.3502 3.58223 28.8801 2.48454 27.2216 2.48454H24.6961V0.572532C24.7413 0.302041 24.5445 0.0484255 24.2565 0.00599812C24.2024 -0.00199937 24.1472 -0.00199937 24.0931 0.00599812H20.5121C20.0975 0.00599812 19.7959 0.183027 19.7959 0.572532V2.48461H11.5034V0.572532C11.5034 0.183027 11.0134 0.00599812 10.5987 0.00599812H7.0178C6.60317 0.00599812 6.22626 0.183027 6.22626 0.572532V2.48461H3.92698C2.26844 2.48461 0.949219 3.5823 0.949219 5.14032V25.6776C0.949219 27.2356 2.26852 28.3333 3.92698 28.3333H16.5167C20.086 32.5379 26.608 33.2283 31.0838 29.8752C33.5351 28.0389 34.9699 25.259 34.9865 22.3138C34.9254 19.0565 33.2001 16.0258 30.3502 14.1696ZM21.3037 1.4223H23.1884V4.6091H21.3037V1.4223ZM7.73401 1.4223H9.99563V4.6091H7.73401V1.4223ZM2.45689 5.14025C2.45689 4.36124 3.09771 3.90091 3.92698 3.90091H6.22626V5.24646C6.24365 5.65636 6.58282 5.99009 7.0178 6.02547H10.5987C11.0574 5.99727 11.4336 5.67331 11.5034 5.24646V3.90098H19.796V5.24652C19.7739 5.6445 20.0898 5.98812 20.5122 6.02553H24.0931C24.5078 6.02553 24.6962 5.63603 24.6962 5.24652V3.90098H27.2217C28.051 3.90098 28.8425 4.36131 28.8425 5.14032V9.56646H2.45689V5.14025ZM3.92698 26.917C3.09771 26.917 2.45689 26.4566 2.45689 25.6776V10.9828H28.8424V13.426C27.5181 12.895 26.098 12.6067 24.6584 12.5762C18.9335 12.5827 14.2983 16.9475 14.3052 22.3254C14.3073 23.9278 14.7302 25.5049 15.5365 26.9169H3.92698V26.917ZM24.5831 30.5995C19.691 30.619 15.7083 26.9093 15.6875 22.3137C15.6668 17.7181 19.6158 13.9768 24.5078 13.9573C29.3999 13.9378 33.3826 17.6474 33.4034 22.243C33.4035 22.2666 33.4035 22.2901 33.4034 22.3137C33.4034 26.8898 29.4544 30.5995 24.5831 30.5995Z" fill="#535353"/>
<path d="M28.1264 22.3137H24.6962V18.0646C24.6962 17.6735 24.3587 17.3564 23.9423 17.3564C23.526 17.3564 23.1885 17.6735 23.1885 18.0646V23.0219C23.2628 23.4353 23.6469 23.7359 24.0931 23.7301H28.1264C28.5427 23.7301 28.8802 23.4131 28.8802 23.0219C28.8802 22.6308 28.5427 22.3137 28.1264 22.3137Z" fill="#535353"/>
</g>
<defs>
<clipPath id="clip0">
<rect x="0.935547" width="34.0645" height="32" fill="white"/>
</clipPath>
</defs>
</svg>
