<svg width="87" height="85" viewBox="0 0 87 85" fill="none" xmlns="http://www.w3.org/2000/svg">
<path d="M78.7319 70.296C81.2136 68.5197 82.835 65.6147 82.835 62.3369C82.835 56.9424 78.4463 52.5537 73.0518 52.5537C67.6573 52.5537 63.2685 56.9424 63.2685 62.3369C63.2685 65.6157 64.8909 68.5215 67.3738 70.2975C62.5052 72.4763 59.1036 77.3648 59.1036 83.0345C59.1036 83.8722 59.7828 84.5514 60.6205 84.5514C61.4582 84.5514 62.1374 83.8722 62.1374 83.0345C62.1374 77.0163 67.0335 72.1201 73.0518 72.1201C79.07 72.1201 83.9662 77.0163 83.9662 83.0345C83.9662 83.8722 84.6453 84.5514 85.4831 84.5514C86.3208 84.5514 87 83.8722 87 83.0345C86.9996 77.3651 83.5997 72.4751 78.7319 70.296ZM73.0518 69.0863C69.33 69.0863 66.3023 66.0585 66.3023 62.3369C66.3023 58.6153 69.3301 55.5874 73.0518 55.5874C76.7736 55.5874 79.8012 58.6153 79.8012 62.3369C79.8012 66.0585 76.7736 69.0863 73.0518 69.0863Z" fill="#AB1032"/>
<path fill-rule="evenodd" clip-rule="evenodd" d="M43.3023 0.450264C47.0195 0.395549 50.5301 1.80675 53.1775 4.41725C55.8256 7.02844 57.2838 10.5139 57.2838 14.2321C57.2838 17.8373 55.9007 21.247 53.3894 23.833C51.7231 25.5487 50.8056 27.7748 50.8056 30.1011V31.8604C50.8056 35.4089 47.9188 38.2957 44.3703 38.2957H42.63C39.0815 38.2957 36.1947 35.4089 36.1947 31.8604V30.1012C36.1947 27.7784 35.2737 25.5489 33.6012 23.8231C31.1436 21.2874 29.7645 17.9474 29.7178 14.418C29.6173 6.82283 35.7114 0.556805 43.3023 0.450264ZM47.8724 28.5847C48.2019 26.0267 49.3571 23.6311 51.2132 21.7199C53.1716 19.7031 54.25 17.044 54.2502 14.2326C54.2502 11.3326 53.1131 8.61397 51.0477 6.57763C49.02 4.57817 46.3453 3.48268 43.5011 3.48268C43.4491 3.48268 43.3971 3.48302 43.3451 3.4837C37.4254 3.5668 32.673 8.45408 32.7514 14.3781C32.7879 17.1299 33.8632 19.7345 35.7797 21.712C37.6394 23.631 38.7972 26.0292 39.1277 28.5847H47.8724Z" fill="#AB1032"/>
<path d="M29.0819 38.7399C28.4897 38.1476 27.5293 38.1476 26.9368 38.7399L17.8361 47.8406C17.2438 48.4328 17.2438 49.3932 17.8361 49.9857C18.1321 50.282 18.5205 50.43 18.9086 50.43C19.2967 50.43 19.685 50.282 19.9812 49.9857L29.0819 40.885C29.6742 40.2928 29.6742 39.3323 29.0819 38.7399Z" fill="#AB1032"/>
<path d="M69.164 47.8406L60.0633 38.7399C59.4711 38.1476 58.5107 38.1476 57.9182 38.7399C57.3259 39.3321 57.3259 40.2925 57.9182 40.885L67.0189 49.9857C67.3149 50.282 67.7033 50.43 68.0914 50.43C68.4795 50.43 68.8678 50.282 69.164 49.9857C69.7563 49.3933 69.7563 48.4329 69.164 47.8406Z" fill="#AB1032"/>
<path d="M43.4997 41.9098C42.662 41.9098 41.9828 42.5889 41.9828 43.4267V49.2166C41.9828 50.0543 42.662 50.7335 43.4997 50.7335C44.3374 50.7335 45.0166 50.0543 45.0166 49.2166V43.4267C45.0166 42.5889 44.3374 41.9098 43.4997 41.9098Z" fill="#AB1032"/>
<path d="M49.1804 70.296C51.6621 68.5197 53.2835 65.6147 53.2835 62.3369C53.2835 56.9424 48.8948 52.5537 43.5003 52.5537C38.1058 52.5537 33.7171 56.9424 33.7171 62.3369C33.7171 65.6157 35.3395 68.5215 37.8224 70.2975C32.9538 72.4763 29.5521 77.3648 29.5521 83.0345C29.5521 83.8722 30.2313 84.5514 31.069 84.5514C31.9067 84.5514 32.5859 83.8722 32.5859 83.0345C32.5859 77.0163 37.482 72.1201 43.5003 72.1201C49.5186 72.1201 54.4147 77.0163 54.4147 83.0345C54.4147 83.8722 55.0939 84.5514 55.9316 84.5514C56.7693 84.5514 57.4485 83.8722 57.4485 83.0345C57.4482 77.3651 54.0482 72.4751 49.1804 70.296ZM43.5001 69.0863C39.7783 69.0863 36.7507 66.0585 36.7507 62.3369C36.7507 58.6153 39.7787 55.5873 43.5001 55.5873C47.2219 55.5873 50.2496 58.6151 50.2496 62.3367C50.2496 66.0585 47.2219 69.0863 43.5001 69.0863Z" fill="#AB1032"/>
<path d="M19.6259 70.2974C22.1088 68.5213 23.7312 65.6156 23.7312 62.3368C23.7312 56.9423 19.3425 52.5536 13.948 52.5536C8.55351 52.5536 4.16478 56.9423 4.16478 62.3368C4.16478 65.6146 5.78617 68.5199 8.26787 70.2959C3.39996 72.4752 0 77.3652 0 83.0344C0 83.8721 0.679176 84.5513 1.51689 84.5513C2.3546 84.5513 3.03378 83.8721 3.03378 83.0344C3.03378 77.0161 7.9299 72.12 13.9482 72.12C19.9665 72.12 24.8626 77.0161 24.8626 83.0344C24.8626 83.8721 25.5418 84.5513 26.3795 84.5513C27.2172 84.5513 27.8964 83.8721 27.8964 83.0344C27.896 77.3647 24.4945 72.4764 19.6259 70.2974ZM13.948 69.0864C10.2262 69.0864 7.19856 66.0586 7.19856 62.337C7.19856 58.6153 10.2264 55.5875 13.948 55.5875C17.6698 55.5875 20.6975 58.6153 20.6975 62.337C20.6975 66.0586 17.6698 69.0864 13.948 69.0864Z" fill="#AB1032"/>
</svg>
