<svg width="202" height="200" viewBox="0 0 202 200" fill="none" xmlns="http://www.w3.org/2000/svg">
<path d="M110.207 64.377C115.086 52.882 121.984 44.013 129.499 40.027C137.434 35.81 145.306 39.393 148.434 41.059C149.519 41.631 149.363 42.252 148.38 42.94C130.688 55.307 122.186 74.376 116.949 91.299C115.988 81.569 113.584 72.339 110.207 64.377Z" fill="white"/>
<path d="M117.374 97.89C132.086 72.5 156.882 56.836 171.661 58.962C179.265 59.99 183.372 66.433 184.899 69.256C185.493 70.324 185.114 70.811 183.917 70.873C178.466 71.133 173.056 72.437 167.802 74.475L159.161 68.51L162.833 76.619C158.495 78.696 154.295 81.212 150.292 83.969L140.695 79.219L146.003 87.061C136.831 94.008 128.932 101.907 123.182 108.135C121.256 110.092 119.697 110.056 116.972 109.6C117.36 105.668 117.48 101.764 117.374 97.89Z" fill="white"/>
<path d="M110.207 142.094C110.171 140.464 111.597 138.972 113.853 137.345C121.52 132.171 127.284 130.027 130.992 133.767C131.689 134.468 133.324 135.603 135.371 135.455C143.261 134.865 153.876 133.972 164.312 134.41L164.742 125.05L169.477 134.736C174.212 135.161 178.81 135.929 182.988 137.203L185.168 128.138L188.225 139.192C191.496 140.719 194.35 142.685 196.611 145.192C197.407 146.094 198.001 145.921 198.546 144.83C199.677 142.543 201.593 137.271 199.833 132.495C193.989 116.656 140.366 108.744 111.97 136.739C112.149 136.149 113.355 132.991 114.382 131.011C119.578 120.869 127.053 114.141 132.597 118.041C133.388 118.644 134.961 118.992 136.74 118.161C143.289 115.499 151.412 111.996 160.044 109.333L158.596 100.058L164.99 107.904C170.294 106.528 175.7 105.55 180.971 105.317L180.221 95.863L186.449 105.375C191.184 105.661 195.751 106.716 199.946 108.758C201.032 109.289 201.55 108.959 201.586 107.735C201.685 104.849 201.345 98.246 196.546 94.082C182.424 81.482 133.98 89.963 113.718 127.617C111.082 132.446 109.416 140.099 109.416 140.099C102.66 135.6 93.806 129.761 89.074 133.823C88.323 134.47 86.746 135.668 84.7 135.511C76.917 134.935 66.489 134.059 56.182 134.448L55.762 125.173L51.084 134.757C46.321 135.15 41.688 135.901 37.466 137.143L35.33 128.279L32.363 139.007C28.879 140.562 25.831 142.612 23.459 145.252C22.659 146.15 22.07 145.972 21.524 144.891C20.399 142.599 18.477 137.309 20.238 132.551C25.894 117.191 72.448 107.344 108.535 137.251C106.519 131.965 93.402 115.037 87.076 119.089C86.263 119.616 84.708 119.956 82.938 119.21C76.411 116.467 68.315 112.981 59.715 110.318L61.163 101.052L54.756 108.898C54.756 108.898 47.286 106.74 38.788 106.289L39.543 96.835L33.319 106.334C28.548 106.629 23.96 107.665 19.733 109.73C18.647 110.252 18.129 109.935 18.088 108.711C17.99 105.824 18.334 99.23 23.132 95.057C36.634 83.003 88.371 93.587 109.468 134.847C109.114 122.271 102.386 105.771 96.735 107.594C95.805 107.893 94.582 107.575 93.362 106.204C80.552 92.372 60.948 72.039 36.501 70.877C35.303 70.814 34.924 70.328 35.509 69.26C37.037 66.437 41.148 59.994 48.76 58.966C68.579 56.116 100.502 83.374 110.201 123.213C115.205 114.031 113.27 103.117 107.931 101.459C106.984 101.169 106.269 100.803 105.75 99.069C103.235 90.84 100.648 81.975 96.609 73.272L103.82 68.589L94.286 68.607C92.266 64.814 89.916 61.075 87.119 57.464L94.008 51.558L83.594 53.251C80.31 49.628 76.503 46.16 72.035 42.943C71.061 42.238 70.9 41.634 71.982 41.062C75.109 39.396 82.977 35.813 90.925 40.03C98.426 44.015 105.329 52.884 110.208 64.38V0.000999451C49.337 0.000999451 0 44.696 0 99.869C0 154.974 49.337 199.782 110.207 199.782V142.094Z" fill="white"/>
</svg>
