<svg width="69" height="94" viewBox="0 0 69 94" fill="none" xmlns="http://www.w3.org/2000/svg">
<path d="M42.0277 49.1543C33.3407 49.1543 26.2749 42.108 26.2749 33.4452C26.2811 24.7884 33.3468 17.7421 42.0277 17.7421C50.7085 17.7421 57.7804 24.7884 57.7804 33.4513C57.7804 42.108 50.7146 49.1543 42.0277 49.1543ZM42.0277 20.4813C34.8579 20.4813 29.0278 26.2952 29.0278 33.4452C29.0278 40.5951 34.864 46.4151 42.0277 46.4151C49.1913 46.4151 55.0275 40.6012 55.0275 33.4513C55.0275 26.3013 49.1974 20.4813 42.0277 20.4813Z" fill="#AB1032"/>
<path d="M68.6941 80.6518C67.7826 77.1135 64.9808 66.2482 64.7055 65.1379C62.6439 56.9143 55.2722 51.1736 46.781 51.1736H37.2866C28.7954 51.1736 21.4237 56.9143 19.3621 65.1379C19.0807 66.2482 16.285 77.1135 15.3734 80.6518C14.9636 82.2441 14.9636 83.8059 15.3734 85.1724C16.1442 87.7286 18.108 89.815 20.6284 90.7545C21.3992 91.0412 22.1945 91.3157 23.0082 91.5659C28.3733 93.2313 36.632 93.9939 42.0338 93.9939C47.4356 93.9939 55.6943 93.2374 61.0594 91.5659C61.873 91.3096 62.6683 91.0412 63.4391 90.7545C65.9596 89.815 67.9233 87.7225 68.6941 85.1724C69.104 83.8059 69.104 82.2441 68.6941 80.6518ZM66.0575 84.3854C65.5313 86.1241 64.1916 87.5516 62.4726 88.1922C61.7507 88.4606 60.9982 88.7169 60.2397 88.9548C55.8778 90.3091 48.3899 91.2608 42.0338 91.2608C35.6776 91.2608 28.1897 90.3152 23.8279 88.9548C23.0632 88.7169 22.3169 88.4606 21.5889 88.1922C19.8698 87.5516 18.524 86.1241 18.004 84.3854C17.7348 83.4947 17.7471 82.4393 18.0346 81.3351C18.9461 77.7906 21.7541 66.9132 22.0293 65.8029C23.7117 59.08 29.5723 54.3215 36.4362 53.9494L39.8376 57.1522L35.8061 68.7678C35.4085 69.9147 35.6715 71.2325 36.4729 72.056L40.9816 76.7169C41.5872 77.3392 42.4926 77.3392 43.0982 76.7169L47.6069 72.056C48.4022 71.2325 48.6713 69.9147 48.2737 68.7678L44.23 57.1522L47.6314 53.9494C54.4953 54.3154 60.3498 59.08 62.0382 65.8029C62.3196 66.9132 65.1215 77.7906 66.033 81.3351C66.3144 82.4454 66.3266 83.4947 66.0575 84.3854Z" fill="#AB1032"/>
<path fill-rule="evenodd" clip-rule="evenodd" d="M11.6983 0.704364C14.7031 0.660137 17.5408 1.80085 19.6807 3.911C21.8212 6.0217 23 8.83907 23 11.8446C23 14.7588 21.8819 17.515 19.852 19.6053C18.5051 20.9922 17.7634 22.7916 17.7634 24.672V26.0941C17.7634 28.9625 15.4299 31.2959 12.5616 31.2959H11.1548C8.2865 31.2959 5.95302 28.9625 5.95302 26.0941V24.6721C5.95302 22.7945 5.20856 20.9923 3.8566 19.5974C1.87007 17.5476 0.755314 14.8478 0.717542 11.9949C0.636366 5.8555 5.56239 0.790485 11.6983 0.704364ZM15.3924 23.4462C15.6588 21.3785 16.5926 19.4421 18.0929 17.8972C19.6759 16.267 20.5477 14.1175 20.5478 11.845C20.5478 9.50084 19.6287 7.30333 17.9592 5.6573C16.3201 4.04107 14.1581 3.15556 11.859 3.15556C11.817 3.15556 11.775 3.15583 11.733 3.15638C6.94786 3.22355 3.10638 7.17408 3.1697 11.9626C3.19923 14.187 4.0684 16.2924 5.6176 17.8909C7.12079 19.442 8.05671 21.3806 8.32386 23.4462H15.3924Z" fill="#AB1032"/>
</svg>
